<svg width="36" height="36" xmlns="http://www.w3.org/2000/svg">
    <g fill="none" fill-rule="evenodd">
        <rect fill="#FFF" width="36" height="36" rx="18"/>
        <g fill-rule="nonzero">
            <path d="M28.786 15.846H27.9V15.8H18v4.4h6.217A6.597 6.597 0 0 1 11.4 18a6.6 6.6 0 0 1 6.6-6.6c1.682 0 3.213.635 4.379 1.671l3.11-3.11A10.95 10.95 0 0 0 18 7C11.925 7 7 11.925 7 18s4.925 11 11 11 11-4.925 11-11c0-.738-.076-1.457-.214-2.154z" fill="#FFC107"/>
            <path d="m8.268 12.88 3.614 2.65A6.597 6.597 0 0 1 18 11.4c1.682 0 3.213.635 4.379 1.671l3.11-3.11A10.95 10.95 0 0 0 18 7c-4.225 0-7.89 2.385-9.732 5.88z" fill="#FF3D00"/>
            <path d="M18 29c2.841 0 5.423-1.087 7.375-2.856l-3.405-2.88A6.55 6.55 0 0 1 18 24.6a6.597 6.597 0 0 1-6.206-4.37l-3.587 2.763C10.027 26.556 13.725 29 18 29z" fill="#4CAF50"/>
            <path d="M28.786 15.846H27.9V15.8H18v4.4h6.217a6.622 6.622 0 0 1-2.248 3.064l.001-.001 3.405 2.88C25.134 26.364 29 23.5 29 18c0-.738-.076-1.457-.214-2.154z" fill="#1976D2"/>
        </g>
    </g>
</svg>
